<?xml version="1.0" encoding="UTF-8" standalone="no"?>
<!-- Generator: Adobe Illustrator 18.1.1, SVG Export Plug-In . SVG Version: 6.00 Build 0)  -->

<svg
   xmlns:dc="http://purl.org/dc/elements/1.1/"
   xmlns:cc="http://creativecommons.org/ns#"
   xmlns:rdf="http://www.w3.org/1999/02/22-rdf-syntax-ns#"
   xmlns:svg="http://www.w3.org/2000/svg"
   xmlns="http://www.w3.org/2000/svg"
   xmlns:sodipodi="http://sodipodi.sourceforge.net/DTD/sodipodi-0.dtd"
   xmlns:inkscape="http://www.inkscape.org/namespaces/inkscape"
   version="1.1"
   id="Capa_1"
   x="0px"
   y="0px"
   viewBox="0 0 525.153 525.153"
   style="enable-background:new 0 0 525.153 525.153;"
   xml:space="preserve"
   inkscape:version="0.91 r13725"
   sodipodi:docname="forward-time.svg"><metadata
     id="metadata41"><rdf:RDF><cc:Work
         rdf:about=""><dc:format>image/svg+xml</dc:format><dc:type
           rdf:resource="http://purl.org/dc/dcmitype/StillImage" /><dc:title /></cc:Work></rdf:RDF></metadata><defs
     id="defs39" /><sodipodi:namedview
     pagecolor="#ffffff"
     bordercolor="#666666"
     borderopacity="1"
     objecttolerance="10"
     gridtolerance="10"
     guidetolerance="10"
     inkscape:pageopacity="0"
     inkscape:pageshadow="2"
     inkscape:window-width="1416"
     inkscape:window-height="1135"
     id="namedview37"
     showgrid="false"
     inkscape:zoom="0.44939283"
     inkscape:cx="45.374843"
     inkscape:cy="262.57651"
     inkscape:window-x="501"
     inkscape:window-y="144"
     inkscape:window-maximized="0"
     inkscape:current-layer="Capa_1" /><g
     id="g3"
     transform="matrix(-1,0,0,1,525.152,0)"
     style="fill:#ffffff;fill-opacity:1"><path
       d="M 125.938,208.901 86.836,169.493 c -25.01,32.209 -40.502,69.32 -45.251,107.941 l 56.06,0 c 3.895,-24.135 13.589,-47.724 28.293,-68.533 z m -28.292,123.98 -56.06,0 c 4.748,38.621 19.978,75.775 44.988,107.941 l 39.08,-39.365 C 111.234,380.626 101.54,357.301 97.646,332.881 Z m 28.008,147.634 c 32.209,24.967 69.67,39.955 108.181,44.638 l 0,-56.323 C 209.7,464.673 186.396,455.22 165.587,440.275 l -39.933,40.24 z m 163.65,-395.353 0,-85.162 -126.19,126.212 126.212,123.476 0,-108.466 c 78.839,13.304 138.706,81.552 138.706,163.935 0,82.383 -59.889,150.653 -138.706,164.001 l 0,55.994 C 398.952,511.542 483.567,418.393 483.567,305.157 483.545,191.987 398.93,98.751 289.304,85.162 Z"
       id="path5"
       inkscape:connector-curvature="0"
       style="fill:#ffffff;fill-opacity:1" /></g><g
     id="g7" /><g
     id="g9" /><g
     id="g11" /><g
     id="g13" /><g
     id="g15" /><g
     id="g17" /><g
     id="g19" /><g
     id="g21" /><g
     id="g23" /><g
     id="g25" /><g
     id="g27" /><g
     id="g29" /><g
     id="g31" /><g
     id="g33" /><g
     id="g35" /><flowRoot
     xml:space="preserve"
     id="flowRoot4169"
     style="font-style:normal;font-weight:normal;font-size:40px;line-height:125%;font-family:sans-serif;letter-spacing:0px;word-spacing:0px;fill:#ffffff;fill-opacity:1;stroke:none;stroke-width:1px;stroke-linecap:butt;stroke-linejoin:miter;stroke-opacity:1;opacity:0.99;"
     transform="matrix(4.9722552,0,0,5.5602022,-564.20765,-1311.1248)"
     inkscape:export-xdpi="51.404099"
     inkscape:export-ydpi="51.404099"><flowRegion
       id="flowRegion4171"><rect
         id="rect4173"
         width="180.24319"
         height="97.909882"
         x="151.31528"
         y="271.47742"
         style="fill:#ffffff;fill-opacity:1;" /></flowRegion><flowPara
       id="flowPara4175">3&quot;</flowPara></flowRoot></svg>