<?xml version="1.0" encoding="UTF-8" standalone="no"?>
<!-- Generator: Adobe Illustrator 19.0.0, SVG Export Plug-In . SVG Version: 6.00 Build 0)  -->

<svg
   xmlns:dc="http://purl.org/dc/elements/1.1/"
   xmlns:cc="http://creativecommons.org/ns#"
   xmlns:rdf="http://www.w3.org/1999/02/22-rdf-syntax-ns#"
   xmlns:svg="http://www.w3.org/2000/svg"
   xmlns="http://www.w3.org/2000/svg"
   xmlns:sodipodi="http://sodipodi.sourceforge.net/DTD/sodipodi-0.dtd"
   xmlns:inkscape="http://www.inkscape.org/namespaces/inkscape"
   version="1.1"
   id="Capa_1"
   x="0px"
   y="0px"
   viewBox="0 0 60 60"
   style="enable-background:new 0 0 60 60;"
   xml:space="preserve"
   inkscape:version="0.91 r13725"
   sodipodi:docname="play.svg"
   inkscape:export-filename="/Users/xiangweiwang/Downloads/play@3x.png"
   inkscape:export-xdpi="198"
   inkscape:export-ydpi="198"><metadata
     id="metadata39"><rdf:RDF><cc:Work
         rdf:about=""><dc:format>image/svg+xml</dc:format><dc:type
           rdf:resource="http://purl.org/dc/dcmitype/StillImage" /></cc:Work></rdf:RDF></metadata><defs
     id="defs37" /><sodipodi:namedview
     pagecolor="#ffffff"
     bordercolor="#666666"
     borderopacity="1"
     objecttolerance="10"
     gridtolerance="10"
     guidetolerance="10"
     inkscape:pageopacity="0"
     inkscape:pageshadow="2"
     inkscape:window-width="1169"
     inkscape:window-height="679"
     id="namedview35"
     showgrid="false"
     inkscape:zoom="3.9333333"
     inkscape:cx="-4.0677966"
     inkscape:cy="30"
     inkscape:window-x="422"
     inkscape:window-y="0"
     inkscape:window-maximized="0"
     inkscape:current-layer="layer1" /><g
     id="g5" /><g
     id="g7" /><g
     id="g9" /><g
     id="g11" /><g
     id="g13" /><g
     id="g15" /><g
     id="g17" /><g
     id="g19" /><g
     id="g21" /><g
     id="g23" /><g
     id="g25" /><g
     id="g27" /><g
     id="g29" /><g
     id="g31" /><g
     id="g33" /><g
     inkscape:groupmode="layer"
     id="layer2"
     inkscape:label="Layer 2"
     style="display:inline"><rect
       style="fill:#ffffff;fill-opacity:1"
       id="rect4170"
       width="53.644066"
       height="55.932201"
       x="4.0677967"
       y="2.0338986"
       ry="27.730101" /></g><g
     inkscape:groupmode="layer"
     id="layer1"
     inkscape:label="Layer 1"
     style="display:inline"><path
       style="fill:#ff0000;fill-opacity:1"
       d="M 30,0 C 13.458,0 0,13.458 0,30 0,46.542 13.458,60 30,60 46.542,60 60,46.542 60,30 60,13.458 46.542,0 30,0 Z m 15.563,30.826 -22,15 C 23.394,45.941 23.197,46 23,46 22.84,46 22.679,45.962 22.533,45.884 22.205,45.711 22,45.371 22,45 l 0,-30 c 0,-0.371 0.205,-0.711 0.533,-0.884 0.328,-0.174 0.724,-0.15 1.031,0.058 l 22,15 C 45.836,29.36 46,29.669 46,30 c 0,0.331 -0.164,0.64 -0.437,0.826 z"
       id="path3"
       inkscape:connector-curvature="0" /></g></svg>