<?xml version="1.0" encoding="UTF-8" standalone="no"?>
<!-- Generator: Adobe Illustrator 18.1.1, SVG Export Plug-In . SVG Version: 6.00 Build 0)  -->

<svg
   xmlns:dc="http://purl.org/dc/elements/1.1/"
   xmlns:cc="http://creativecommons.org/ns#"
   xmlns:rdf="http://www.w3.org/1999/02/22-rdf-syntax-ns#"
   xmlns:svg="http://www.w3.org/2000/svg"
   xmlns="http://www.w3.org/2000/svg"
   xmlns:sodipodi="http://sodipodi.sourceforge.net/DTD/sodipodi-0.dtd"
   xmlns:inkscape="http://www.inkscape.org/namespaces/inkscape"
   version="1.1"
   id="Capa_1"
   x="0px"
   y="0px"
   viewBox="0 0 525.153 525.153"
   style="enable-background:new 0 0 525.153 525.153;"
   xml:space="preserve"
   inkscape:version="0.91 r13725"
   sodipodi:docname="rewind-time.svg"><metadata
     id="metadata41"><rdf:RDF><cc:Work
         rdf:about=""><dc:format>image/svg+xml</dc:format><dc:type
           rdf:resource="http://purl.org/dc/dcmitype/StillImage" /></cc:Work></rdf:RDF></metadata><defs
     id="defs39" /><sodipodi:namedview
     pagecolor="#ffffff"
     bordercolor="#666666"
     borderopacity="1"
     objecttolerance="10"
     gridtolerance="10"
     guidetolerance="10"
     inkscape:pageopacity="0"
     inkscape:pageshadow="2"
     inkscape:window-width="1308"
     inkscape:window-height="1045"
     id="namedview37"
     showgrid="false"
     inkscape:zoom="0.44939283"
     inkscape:cx="-254.78822"
     inkscape:cy="262.57651"
     inkscape:window-x="826"
     inkscape:window-y="162"
     inkscape:window-maximized="0"
     inkscape:current-layer="Capa_1" /><g
     id="g3"
     style="fill:#ffffff;fill-opacity:1"><path
       d="M125.938,208.901l-39.102-39.408c-25.01,32.209-40.502,69.32-45.251,107.941h56.06   C101.54,253.299,111.234,229.71,125.938,208.901z M97.646,332.881h-56.06c4.748,38.621,19.978,75.775,44.988,107.941l39.08-39.365   C111.234,380.626,101.54,357.301,97.646,332.881z M125.654,480.515c32.209,24.967,69.67,39.955,108.181,44.638V468.83   c-24.135-4.157-47.439-13.61-68.248-28.555L125.654,480.515z M289.304,85.162V0l-126.19,126.212l126.212,123.476V141.222   c78.839,13.304,138.706,81.552,138.706,163.935s-59.889,150.653-138.706,164.001v55.994   c109.626-13.61,194.241-106.759,194.241-219.995C483.545,191.987,398.93,98.751,289.304,85.162z"
       id="path5"
       style="fill:#ffffff;fill-opacity:1" /></g><g
     id="g7" /><g
     id="g9" /><g
     id="g11" /><g
     id="g13" /><g
     id="g15" /><g
     id="g17" /><g
     id="g19" /><g
     id="g21" /><g
     id="g23" /><g
     id="g25" /><g
     id="g27" /><g
     id="g29" /><g
     id="g31" /><g
     id="g33" /><g
     id="g35" /><flowRoot
     xml:space="preserve"
     id="flowRoot4169"
     style="font-style:normal;font-weight:normal;font-size:40px;line-height:125%;font-family:sans-serif;letter-spacing:0px;word-spacing:0px;fill:#ffffff;fill-opacity:1;stroke:none;stroke-width:1px;stroke-linecap:butt;stroke-linejoin:miter;stroke-opacity:1;opacity:0.71;"
     transform="matrix(4.9722552,0,0,5.5602022,-564.20765,-1311.1248)"
     inkscape:export-xdpi="51.404099"
     inkscape:export-ydpi="51.404099"><flowRegion
       id="flowRegion4171"><rect
         id="rect4173"
         width="180.24319"
         height="97.909882"
         x="151.31528"
         y="271.47742"
         style="fill:#ffffff;fill-opacity:1;" /></flowRegion><flowPara
       id="flowPara4175">3&quot;</flowPara></flowRoot></svg>